HIERARCHY
ROOT ui
{
	 OFFSET 0 0 0
	 CHANNELS 3 XPosition YPosition Z Position
	 EndSite
	 {
	 OFFSET 0 -1 0
	 }
}
ROOT li
{
	 OFFSET 0 0 0
	 CHANNELS 3 XPosition YPosition Z Position
	 EndSite
	 {
	 OFFSET 0 -1 0
	 }
}
ROOT ul
{
	 OFFSET 0 0 0
	 CHANNELS 3 XPosition YPosition Z Position
	 EndSite
	 {
	 OFFSET 0 -1 0
	 }
}
ROOT ll
{
	 OFFSET 0 0 0
	 CHANNELS 3 XPosition YPosition Z Position
	 EndSite
	 {
	 OFFSET 0 -1 0
	 }
}
ROOT tt
{
	 OFFSET 0 0 0
	 CHANNELS 3 XPosition YPosition Z Position
	 EndSite
	 {
	 OFFSET 0 -1 0
	 }
}
ROOT tb
{
	 OFFSET 0 0 0
	 CHANNELS 3 XPosition YPosition Z Position
	 EndSite
	 {
	 OFFSET 0 -1 0
	 }
}
ROOT td
{
	 OFFSET 0 0 0
	 CHANNELS 3 XPosition YPosition Z Position
	 EndSite
	 {
	 OFFSET 0 -1 0
	 }
}
ROOT v
{
	 OFFSET 0 0 0
	 CHANNELS 3 XPosition YPosition Z Position
	 EndSite
	 {
	 OFFSET 0 -1 0
	 }
}
ROOT bn
{
	 OFFSET 0 0 0
	 CHANNELS 3 XPosition YPosition Z Position
	 EndSite
	 {
	 OFFSET 0 -1 0
	 }
}
MOTION
Frames: 29
Frame Time: 0.002
-0.003263751983642578	-7.645729780197144E-4	0		0.6528187866210937	-2.749197021484375	0		-1.1783677978515625	0.05635333633422852	0		-0.52576123046875	-3.123093994140625	0		1.0295377197265625	-0.9872639770507813	0		2.79844091796875	-0.19589411926269532	0		4.44319482421875	0.036573493957519534	0		5.78948681640625	0.28920669555664064	0		-0.18189605712890625	5.918892578125	0		
-0.00371573805809021	-9.375560283660889E-4	0		0.6582578735351563	-2.74228759765625	0		-1.15972265625	0.06148749160766601	0		-0.5870709838867187	-3.108211181640625	0		1.037549560546875	-0.9773097534179688	0		2.808749755859375	-0.21050660705566407	0		4.442732421875	0.037431419372558596	0		5.78918310546875	0.29165762329101563	0		-0.30020718383789063	5.907921875	0		
0.006026296138763427	0.009687996864318848	0		0.652759521484375	-2.729182861328125	0		-1.0911417236328125	0.06368288040161132	0		-0.5265810546875	-3.1016943359375	0		1.0393958740234375	-0.9742567749023437	0		2.8159296875	-0.1790902099609375	0		4.4364287109375	0.04734526443481445	0		5.791857421875	0.3111281433105469	0		-0.18403355407714844	5.91640380859375	0		
-5.823869705200196E-4	0.0026182079315185546	0		0.6488848266601562	-2.733130859375	0		-1.1794093017578124	0.07588648986816406	0		-0.5622823486328125	-3.10133056640625	0		1.018240966796875	-0.9697896118164062	0		2.791011962890625	-0.2041215057373047	0		4.4276982421875	0.035237331390380856	0		5.78076953125	0.30512118530273435	0		-0.18793455505371093	5.91820947265625	0		
-0.005134529113769532	-0.0014965200424194335	0		0.67294287109375	-2.738616943359375	0		-1.104327880859375	0.05201001739501953	0		-0.5389150390625	-3.095080810546875	0		1.0149138793945311	-0.9736869506835938	0		2.784713134765625	-0.19655418395996094	0		4.4272119140625	0.03591096115112305	0		5.77452587890625	0.2796845703125	0		-0.1897831268310547	5.91797607421875	0		
-0.0056081609725952145	-0.001690762996673584	0		0.6579492797851563	-2.744387939453125	0		-1.17672705078125	0.05690606689453125	0		-0.572662841796875	-3.091763427734375	0		1.0125941772460938	-0.9766246337890625	0		2.786059814453125	-0.20818380737304687	0		4.42673046875	0.03651868057250977	0		5.77124609375	0.2677788391113281	0		-0.19152867126464843	5.91774169921875	0		
-0.006071093082427978	-0.00188749098777771	0		0.6590635375976562	-2.74247216796875	0		-1.0930877685546876	0.06194544219970703	0		-0.557610107421875	-3.0973447265625	0		1.0143778686523437	-0.973657470703125	0		2.801999755859375	-0.18812509155273438	0		4.4303681640625	0.04298404693603516	0		5.75970361328125	0.2941222839355469	0		-0.3265379943847656	5.8979375	0		
-0.0024434809684753416	0.001841528058052063	0		0.6543817138671875	-2.72746337890625	0		-1.168512939453125	0.06390686798095703	0		-0.542141357421875	-3.07791552734375	0		1.0082351684570312	-0.9665657348632812	0		2.78523046875	-0.20752845764160155	0		4.4340419921875	0.05038130950927734	0		5.75939892578125	0.29555630493164065	0		-0.19466232299804687	5.91727685546875	0		
0.02211807060241699	1.9676199555397034E-4	0		0.7022169189453125	-2.738412841796875	0		-1.098040283203125	0.05725220489501953	0		-0.5770396118164063	-3.076573486328125	0		1.0049209594726562	-0.9695467529296875	0		2.80298779296875	-0.1996015625	0		4.4353486328125	0.035750633239746095	0		5.76602685546875	0.2670932922363281	0		-0.19602914428710938	5.91704833984375	0		
-0.003240020990371704	0.0014475589990615844	0		0.6493065795898437	-2.733568603515625	0		-1.1024808349609374	0.05397125244140625	0		-0.5420044555664062	-3.078472900390625	0		1.0057146606445313	-0.96761767578125	0		2.78665673828125	-0.19811444091796876	0		4.3991298828125	0.04572436904907227	0		5.75820166015625	0.3065606994628906	0		-0.19821604919433594	5.918841796875	0		
0.018349130630493163	-0.003133924961090088	0		0.6752529296875	-2.737139404296875	0		-1.1788123779296875	0.0549800910949707	0		-0.5759000854492188	-3.07513525390625	0		0.9962880859375	-0.9795259399414062	0		2.782257080078125	-0.20289041137695313	0		4.434623046875	0.036357330322265624	0		5.75550341796875	0.26257675170898437	0		-0.33165625	5.89895361328125	0		
-0.003866374969482422	0.0010622999668121339	0		0.6294730224609375	-2.724453857421875	0		-1.164057373046875	0.05740039825439453	0		-0.5687396850585937	-3.068510986328125	0		0.9961033325195312	-0.9796102294921875	0		2.776762451171875	-0.21569454956054687	0		4.3993173828125	0.036178642272949216	0		5.75530517578125	0.2633039855957031	0		-0.3316277160644531	5.89571044921875	0		
0.02394208335876465	0.0033871760368347167	0		0.6585093994140625	-2.723089111328125	0		-1.1661622314453124	0.06514297485351563	0		-0.5645988159179688	-3.062819091796875	0		0.9844768676757812	-0.9495020751953125	0		2.795957763671875	-0.19196548461914062	0		4.4140546875	0.035064342498779294	0		5.7551669921875	0.26733367919921874	0		-0.18484536743164062	5.9259267578125	0		
-0.00429546594619751	6.946229934692383E-4	0		0.6446134033203125	-2.717978271484375	0		-1.170407958984375	0.061944431304931644	0		-0.5553511962890625	-3.0512001953125	0		0.9961139526367188	-0.9638151245117188	0		2.76252734375	-0.20636117553710936	0		4.3988828125	0.036422782897949216	0		5.747943359375	0.27325460815429686	0		-0.20161647033691407	5.91801123046875	0		
0.020541942596435547	-9.126480221748352E-4	0		0.6705845336914062	-2.721562255859375	0		-1.0955819091796875	0.059400146484375	0		-0.5892293701171875	-3.046822021484375	0		0.9929634399414062	-0.9678756713867187	0		2.783620361328125	-0.19372994995117188	0		4.40458203125	0.027374750137329103	0		5.74422021484375	0.26506576538085935	0		-0.2021246337890625	5.91782373046875	0		
-0.008603328704833985	-0.0035793418884277344	0		0.6545051879882813	-2.728419921875	0		-1.10380224609375	0.05231575012207031	0		-0.555248046875	-3.051605712890625	0		0.9870358276367187	-0.9608915405273437	0		2.753346923828125	-0.20423921203613282	0		4.3894853515625	0.02765151023864746	0		5.74120361328125	0.2515530090332031	0		-0.20252023315429687	5.9176455078125	0		
-0.009508124351501465	0.005274973869323731	0		0.6566055908203124	-2.72558984375	0		-1.170716796875	0.06126199722290039	0		-0.6169359741210938	-3.036724365234375	0		0.9900654296875	-0.9580654296875	0		2.769636962890625	-0.18456864929199218	0		4.4045078125	0.032378887176513674	0		5.74116455078125	0.2516685333251953	0		-0.3352099914550781	5.89575048828125	0		
-0.0046222667694091795	3.602999821305275E-5	0		0.6519208984375	-2.710639404296875	0		-1.1707459716796875	0.061072265625	0		-0.5459314575195312	-3.041115966796875	0		1.0120473022460938	-0.9595659790039063	0		2.757359375	-0.19942819213867188	0		4.3994462890625	0.030426136016845705	0		5.73700244140625	0.27091378784179687	0		-0.20302702331542968	5.91731640625	0		
0.020357778549194336	-0.0015381259918212892	0		0.6468831787109375	-2.716682861328125	0		-1.17074658203125	0.06089937591552735	0		-0.5798027954101562	-3.03769140625	0		1.001072265625	-0.9594990234375	0		2.790480224609375	-0.19307594299316405	0		4.3994462890625	0.030367483139038087	0		5.72696044921875	0.26266015625	0		-0.20219940185546875	5.91514892578125	0		
-0.009510152816772461	0.004838141918182373	0		0.6620562744140625	-2.711066650390625	0		-1.09981884765625	0.05452592086791992	0		-0.5576251220703125	-3.032216796875	0		0.9911839599609376	-0.9554479370117187	0		2.764426513671875	-0.197718017578125	0		4.39443701171875	0.028381107330322265	0		5.72402880859375	0.2488759002685547	0		-0.2032438659667969	5.917025390625	0		
-0.008620661735534668	-0.0043068060874938965	0		0.6470344848632813	-2.716929443359375	0		-1.17574755859375	0.056683700561523435	0		-0.5776077270507812	-3.036010009765625	0		0.9981192016601562	-0.9626829833984375	0		2.771489013671875	-0.19693136596679686	0		4.4044443359375	0.026128849029541015	0		5.7240615234375	0.248779541015625	0		-0.2032764434814453	5.9168935546875	0		
-0.004494758129119873	-4.968839883804321E-4	0		0.6522197265625	-2.711130859375	0		-1.164708740234375	0.05536372375488281	0		-0.5724195556640626	-3.03022265625	0		0.98032568359375	-0.95448779296875	0		2.7663271484375	-0.20993910217285155	0		4.38448828125	0.025384695053100585	0		5.72115283203125	0.23494210815429686	0		-0.3346820678710937	5.89401611328125	0		
0.0016929470300674437	0.006286458015441894	0		0.6475811767578125	-2.69515625	0		-1.160589599609375	0.058174079895019534	0		-0.5780558471679688	-3.0142392578125	0		1.03861474609375	-0.9425881958007812	0		2.804887939453125	-0.18168772888183593	0		4.3886591796875	0.031227132797241212	0		5.72415380859375	0.24853215026855469	0		-0.18710980224609375	5.92438134765625	0		
-0.004348513126373291	-7.151129841804504E-4	0		0.6675159301757813	-2.7045986328125	0		-1.1073321533203124	0.06815491485595702	0		-0.593908935546875	-3.01107421875	0		0.985568115234375	-0.9497804565429687	0		2.755716796875	-0.1959381103515625	0		4.3904794921875	0.016109357833862303	0		5.70706884765625	0.2456523895263672	0		-0.20319805908203126	5.91655029296875	0		
-0.004264286994934082	-8.131930232048035E-4	0		0.6426683349609374	-2.7012666015625	0		-1.181374267578125	0.06131754684448242	0		-0.5938099365234375	-3.01117529296875	0		1.0306162109375	-0.9526426391601562	0		2.759750244140625	-0.19909056091308594	0		4.3946826171875	0.022960033416748047	0		5.7071298828125	0.24553083801269532	0		-0.2031429138183594	5.916451171875	0		
-0.004174228191375732	-9.05032992362976E-4	0		0.6448067016601563	-2.699389404296875	0		-1.17030322265625	0.060031597137451174	0		-0.6256137084960938	-3.00572412109375	0		0.9857521362304688	-0.9499602661132812	0		2.764720947265625	-0.20625209045410156	0		4.3856201171875	0.014043031692504883	0		5.71066259765625	0.2314384002685547	0		-0.20308441162109375	5.9163583984375	0		
-0.00407836389541626	-9.914360046386719E-4	0		0.62100830078125	-2.6940625	0		-1.1702076416015625	0.05993792724609375	0		-0.5884874267578125	-3.005446533203125	0		1.033864013671875	-0.949860595703125	0		2.786037109375	-0.19368186950683594	0		4.390646484375	0.00989478874206543	0		5.7043251953125	0.23334573364257813	0		-0.3212131958007812	5.9062880859375	0		
-9.249380230903626E-4	0.001875311017036438	0		0.673055419921875	-2.699026611328125	0		-1.095133544921875	0.057567031860351565	0		-0.6182210693359375	-2.997021484375	0		1.0301451416015626	-0.9398674926757813	0		2.767990234375	-0.2024336700439453	0		4.4067470703125	0.009567972183227538	0		5.70786767578125	0.21929302978515625	0		-0.2029675750732422	5.9161875	0		
-0.008778380393981934	0.003934155941009521	0		0.6482471313476562	-2.69567138671875	0		-1.0950228271484375	0.05747927093505859	0		-0.5610385131835938	-2.995077880859375	0		1.0251636962890625	-0.9458489379882813	0		2.795201904296875	-0.1969464569091797	0		4.3959794921875	0.016712430953979493	0		5.70450341796875	0.2366970672607422	0		-0.20291236877441407	5.91610791015625	0		
